<svg xmlns="http://www.w3.org/2000/svg" xmlns:xlink="http://www.w3.org/1999/xlink" width="1980" zoomAndPan="magnify" viewBox="0 0 1485 809.999993" height="1080" preserveAspectRatio="xMidYMid meet" version="1.0"><defs><clipPath id="de7132c771"><path d="M 580.5 243 L 904.5 243 L 904.5 567 L 580.5 567 Z M 580.5 243 " clip-rule="nonzero"/></clipPath></defs><g clip-path="url(#de7132c771)"><path fill="#15b8a6" d="M 742.5 243 C 653.222656 243 580.5 315.722656 580.5 405 C 580.5 494.277344 653.222656 567 742.5 567 C 831.777344 567 904.5 494.277344 904.5 405 C 904.5 315.722656 831.777344 243 742.5 243 Z M 742.5 275.398438 C 814.269531 275.398438 872.101562 333.230469 872.101562 405 C 872.101562 476.769531 814.269531 534.601562 742.5 534.601562 C 670.730469 534.601562 612.898438 476.769531 612.898438 405 C 612.898438 333.230469 670.730469 275.398438 742.5 275.398438 Z M 812.046875 344.945312 L 710.101562 446.890625 L 672.953125 409.746094 L 650.046875 432.652344 L 710.101562 492.707031 L 834.953125 367.855469 Z M 812.046875 344.945312 " fill-opacity="1" fill-rule="nonzero"/></g></svg>