<svg xmlns="http://www.w3.org/2000/svg" xmlns:xlink="http://www.w3.org/1999/xlink" width="1980" zoomAndPan="magnify" viewBox="0 0 1485 809.999993" height="1080" preserveAspectRatio="xMidYMid meet" version="1.0"><defs><clipPath id="b25cf10200"><path d="M 580.5 444 L 904.5 444 L 904.5 567 L 580.5 567 Z M 580.5 444 " clip-rule="nonzero"/></clipPath></defs><path fill="#15b8a6" d="M 756.769531 444.035156 L 756.769531 257.273438 C 756.769531 253.492188 755.304688 249.867188 752.605469 247.164062 C 749.90625 244.542969 746.28125 243 742.5 243 C 738.71875 243 735.09375 244.542969 732.394531 247.164062 C 729.695312 249.867188 728.230469 253.492188 728.230469 257.273438 L 728.230469 444.035156 C 728.230469 444.035156 700.996094 416.804688 685.800781 401.605469 C 683.101562 398.90625 679.472656 397.441406 675.695312 397.441406 C 671.914062 397.441406 668.289062 398.90625 665.589844 401.605469 C 660.035156 407.160156 660.035156 416.1875 665.589844 421.738281 L 732.933594 489.085938 C 735.480469 491.632812 738.875 493.019531 742.5 493.019531 C 746.125 493.019531 749.519531 491.632812 752.066406 489.085938 L 819.410156 421.738281 C 824.964844 416.1875 824.964844 407.160156 819.410156 401.605469 C 816.710938 398.90625 813.085938 397.441406 809.304688 397.441406 C 805.527344 397.441406 801.898438 398.90625 799.199219 401.605469 C 783.925781 416.804688 756.769531 444.035156 756.769531 444.035156 Z M 756.769531 444.035156 " fill-opacity="1" fill-rule="evenodd"/><g clip-path="url(#b25cf10200)"><path fill="#15b8a6" d="M 580.5 540 C 580.5 547.175781 583.355469 554.039062 588.445312 559.054688 C 593.539062 564.144531 600.402344 567 607.5 567 L 877.5 567 C 884.675781 567 891.539062 564.144531 896.554688 559.054688 C 901.644531 553.964844 904.5 547.097656 904.5 540 L 904.5 458.304688 C 904.5 450.4375 898.097656 444.035156 890.230469 444.035156 C 886.449219 444.035156 882.824219 445.578125 880.121094 448.199219 C 877.421875 450.898438 875.957031 454.527344 875.957031 458.304688 L 875.957031 525.035156 C 875.957031 532.515625 869.941406 538.535156 862.457031 538.535156 L 622.542969 538.535156 C 615.058594 538.535156 609.042969 532.515625 609.042969 525.035156 L 609.042969 458.304688 C 609.042969 454.527344 607.5 450.898438 604.878906 448.199219 C 602.175781 445.5 598.550781 444.035156 594.769531 444.035156 C 586.902344 444.035156 580.5 450.4375 580.5 458.304688 Z M 580.5 540 " fill-opacity="1" fill-rule="evenodd"/></g></svg>