<svg xmlns="http://www.w3.org/2000/svg" xmlns:xlink="http://www.w3.org/1999/xlink" width="1980" zoomAndPan="magnify" viewBox="0 0 1485 809.999993" height="1080" preserveAspectRatio="xMidYMid meet" version="1.0"><defs><clipPath id="2acae78dff"><path d="M 580.5 243 L 904.5 243 L 904.5 567 L 580.5 567 Z M 580.5 243 " clip-rule="nonzero"/></clipPath></defs><g clip-path="url(#2acae78dff)"><path fill="#15b8a6" d="M 605.421875 405 C 605.421875 329.292969 666.792969 267.921875 742.5 267.921875 C 818.207031 267.921875 879.578125 329.292969 879.578125 405 C 879.578125 480.707031 818.207031 542.078125 742.5 542.078125 C 666.792969 542.078125 605.421875 480.707031 605.421875 405 Z M 742.5 243 C 653.03125 243 580.5 315.53125 580.5 405 C 580.5 494.46875 653.03125 567 742.5 567 C 831.96875 567 904.5 494.46875 904.5 405 C 904.5 315.53125 831.96875 243 742.5 243 Z M 730.378906 436.746094 C 730.378906 444.21875 734.371094 447.953125 742.355469 447.953125 C 750.339844 447.953125 754.335938 444.21875 754.335938 436.746094 C 754.335938 431.769531 755.046875 427.855469 756.472656 425.011719 C 757.992188 422.164062 760.179688 419.765625 763.03125 417.808594 C 765.976562 415.851562 769.542969 413.71875 773.722656 411.40625 C 777.8125 409.273438 782.277344 406.5625 787.125 403.269531 C 791.976562 399.980469 796.109375 395.488281 799.53125 389.800781 C 803.046875 384.105469 804.804688 376.550781 804.804688 367.125 C 804.804688 350.40625 800.484375 338.003906 791.832031 329.910156 C 783.183594 321.820312 769.921875 317.773438 752.050781 317.773438 L 732.945312 317.773438 C 715.265625 317.773438 702.054688 321.863281 693.308594 330.042969 C 684.5625 338.226562 680.191406 350.585938 680.191406 367.125 C 680.191406 374.59375 684.183594 378.328125 692.167969 378.328125 C 700.152344 378.328125 704.144531 374.59375 704.144531 367.125 C 704.144531 356.808594 706.140625 349.738281 710.132812 345.917969 C 714.125 342.09375 721.730469 340.179688 732.945312 340.179688 L 752.050781 340.179688 C 763.363281 340.179688 770.96875 342.046875 774.863281 345.78125 C 778.855469 349.429688 780.851562 356.542969 780.851562 367.125 C 780.851562 372.101562 780.09375 376.015625 778.570312 378.859375 C 777.144531 381.707031 774.960938 384.105469 772.011719 386.0625 C 769.164062 388.019531 765.644531 390.152344 761.460938 392.464844 C 757.375 394.597656 752.90625 397.3125 748.0625 400.601562 C 743.210938 403.894531 739.03125 408.382812 735.511719 414.074219 C 732.089844 419.765625 730.378906 427.320312 730.378906 436.746094 Z M 727.527344 481.5625 C 727.527344 488.679688 731.328125 492.234375 738.933594 492.234375 L 745.777344 492.234375 C 753.003906 492.234375 756.613281 488.679688 756.613281 481.5625 L 756.613281 474.894531 C 756.613281 467.960938 753.003906 464.492188 745.777344 464.492188 L 738.933594 464.492188 C 731.328125 464.492188 727.527344 467.960938 727.527344 474.894531 Z M 727.527344 481.5625 " fill-opacity="1" fill-rule="evenodd"/></g></svg>