<svg xmlns="http://www.w3.org/2000/svg" xmlns:xlink="http://www.w3.org/1999/xlink" width="1980" zoomAndPan="magnify" viewBox="0 0 1485 809.999993" height="1080" preserveAspectRatio="xMidYMid meet" version="1.0"><defs><clipPath id="7252a72f72"><path d="M 580.5 243 L 844 243 L 844 507 L 580.5 507 Z M 580.5 243 " clip-rule="nonzero"/></clipPath><clipPath id="0199892549"><path d="M 782 445 L 904.5 445 L 904.5 567 L 782 567 Z M 782 445 " clip-rule="nonzero"/></clipPath></defs><g clip-path="url(#7252a72f72)"><path fill="#15b8a6" d="M 712.074219 275.894531 C 657.574219 275.894531 613.394531 320.074219 613.394531 374.574219 C 613.394531 429.074219 657.574219 473.253906 712.074219 473.253906 C 766.574219 473.253906 810.753906 429.074219 810.753906 374.574219 C 810.753906 320.074219 766.574219 275.894531 712.074219 275.894531 Z M 580.5 374.574219 C 580.5 301.90625 639.40625 243 712.074219 243 C 784.738281 243 843.648438 301.90625 843.648438 374.574219 C 843.648438 447.238281 784.738281 506.148438 712.074219 506.148438 C 639.40625 506.148438 580.5 447.238281 580.5 374.574219 Z M 580.5 374.574219 " fill-opacity="1" fill-rule="evenodd"/></g><path fill="#15b8a6" d="M 769.636719 374.574219 C 769.636719 342.78125 743.863281 317.011719 712.074219 317.011719 L 712.074219 284.117188 C 762.03125 284.117188 802.53125 324.617188 802.53125 374.574219 Z M 769.636719 374.574219 " fill-opacity="1" fill-rule="evenodd"/><g clip-path="url(#0199892549)"><path fill="#15b8a6" d="M 805.9375 445.179688 L 904.617188 543.859375 L 881.359375 567.117188 L 782.679688 468.4375 Z M 805.9375 445.179688 " fill-opacity="1" fill-rule="evenodd"/></g></svg>